<?xml version="1.0" encoding="UTF-8" standalone="no"?>
<svg
   viewBox="0 0 900 900"
   version="1.1"
   x="0px"
   y="0px"
   id="svg6"
   xmlns="http://www.w3.org/2000/svg"
   xmlns:svg="http://www.w3.org/2000/svg">
  <defs
     id="defs1" />
  <g
     id="layer8"
     style="display:inline;fill:#00abab">
    <path
       d="m 617.70289,540.13491 c 52.88669,15.79255 78.38053,-15.70833 89.03132,1.18602 6.9781,10.65079 10.10546,22.07428 8.63639,70.921 -2.20361,59.4975 -27.41972,62.56108 -47.25222,103.32789 -31.95237,66.10834 -70.27372,134.29487 -146.29832,157.80006 -39.29773,12.11986 -103.937,12.11986 -143.23474,0 -76.02459,-23.50519 -135.53554,-139.64711 -167.4879,-205.75545 -19.83251,-40.76681 -23.85902,10.43376 -26.06264,-49.06374 -10.86846,-89.38116 97.34826,-67.41953 157.57699,-104.47498 12.75653,-7.84839 -6.34774,16.27906 -3.26924,19.77014 22.815,65.70541 54.99974,167.72523 112.54711,207.64967 49.8624,-36.63823 72.88961,-153.25919 101.94179,-196.25109 -8.84855,-6.21169 -9.03507,-27.77219 -5.93117,-28.83914 7.8704,-2.70541 35.65727,15.32975 69.80263,23.72962 z"
       id="path6"
       style="display:inline;fill:#00abab;fill-opacity:1;stroke:none;stroke-width:0.367269" />
    <path
       id="path26"
       style="display:inline;fill:#00abab;fill-opacity:1;stroke-width:1.21967;stroke-linecap:round;stroke-linejoin:round"
       d="M 414.24808,20.649692 C 323.38402,25.86468 299.00442,100.71525 283.50496,163.6035 c -7.47047,30.31105 0.91842,62.16164 -9.8873,81.98314 -1.25257,2.29763 -10.27744,10.71645 -8.5894,10.47454 4.07352,-0.5838 9.11213,-1.64868 8.75514,0.61794 -5.92953,37.64825 10.70744,79.71089 12.76311,120.54892 2.22568,44.21586 -23.68403,78.49655 -26.03102,85.46993 -5.06041,15.03547 -26.97448,18.4015 -30.0422,23.75884 -1.42521,2.48892 3.70457,0.0557 7.03966,-1.24158 -0.85709,4.05575 -8.89302,10.64089 -14.26178,13.9159 -9.50457,5.79792 -21.86069,6.54436 -6.16781,8.79544 13.32467,1.91136 30.20139,6.25537 36.7787,0.58382 8.24727,-7.11155 -7.14973,21.29987 -26.23681,31.58923 -2.1894,1.18025 30.57207,-9.88056 33.23045,-10.53208 22.54788,-5.52606 47.26225,-8.97143 78.94651,-24.9487 8.5302,-4.30149 12.7507,-17.39441 11.18182,-31.72087 -1.02853,-9.3922 50.74426,63.91761 123.46432,40.33086 19.67253,-6.38078 45.56978,-26.70346 52.29807,-33.38291 11.06977,-10.98941 -3.57585,-9.21208 -14.17508,0.0914 -10.59924,9.30348 -47.927,34.40624 -79.21247,29.53943 -29.41509,-6.32225 -57.78023,-28.17506 -80.33494,-54.18562 -19.21675,-22.16115 -23.31933,-49.07122 -25.90843,-55.99119 -9.60558,-25.67316 -16.15072,-51.33603 -16.48051,-54.05244 -4.95583,-40.8198 -9.14574,-52.77536 -8.87365,-74.78561 10e-4,1.8e-4 0.009,-3.6e-4 0.0105,0 h 0.003 l 0.003,0.002 0.003,0.002 0.003,0.002 0.003,0.002 c 0.13018,0.16639 -2.8289,2.83792 -2.35514,4.57667 0.84949,3.11768 2.79468,6.80479 3.72964,10.42896 1.01952,3.95195 4.32079,11.50874 5.75394,15.70602 0.80196,2.34873 -2.66976,19.48566 -1.82629,21.94116 0.74931,2.18137 5.94345,-12.86978 6.2243,-12.32387 6.00016,11.66357 14.28841,20.08359 20.69382,22.82482 14.90246,6.37757 40.90644,7.2173 59.58281,2.07313 7.93314,-2.1851 12.57831,-7.07985 17.7254,-13.14341 7.56112,-8.90746 10.78352,-19.45382 17.76967,-38.50091 3.35846,-9.15658 3.35594,-15.80768 4.4322,-16.99693 2.30527,-2.54732 10.62347,-2.99512 15.47865,-0.78295 3.56289,1.62334 1.77465,5.39884 3.48925,13.49063 2.00921,9.48246 6.51469,27.65179 12.09844,35.47672 6.12185,8.57901 12.90304,15.2365 22.09162,19.54114 6.51825,3.05367 12.91007,5.72953 34.13163,5.72953 17.82294,0 29.32568,-3.6253 36.9188,-6.80131 16.18972,-6.77177 23.66296,-18.74297 29.4821,-44.4519 2.4899,-11.00033 5.28833,-30.17283 6.29205,-27.41517 3.00434,8.25431 0.39991,20.08281 -2.60848,40.01314 -0.7675,5.08461 -3.44209,13.21846 -1.50237,11.85179 3.34227,-2.35486 9.25694,-21.64085 16.37481,-54.43351 2.11337,-9.7365 4.50863,-18.77917 9.98779,-13.30001 3.97769,3.97772 6.00432,13.91792 5.04767,26.8133 -2.04605,27.57639 -16.83639,65.5148 -27.33013,79.97786 -2.08875,2.87883 -10.0992,12.27761 -9.26099,-0.36061 0.73528,-11.08626 2.88284,-19.066 -2.22444,-11.21008 -0.58191,0.89509 -4.54191,23.6004 -6.21709,33.45975 -3.70185,21.78742 -8.67468,45.21563 -23.18707,63.42212 -26.98916,33.85921 -66.4431,61.3855 -53.08886,56.31407 6.20293,-2.35564 16.51967,-1.99102 49.00045,-35.10392 3.47569,-2.45789 -3.78231,25.86552 15.92541,44.27825 27.05425,25.27651 96.08082,35.31084 92.97493,35.0494 -10.53189,-0.88655 -11.22999,-6.42082 -26.14199,-27.34879 -7.63103,-10.70963 -2.56354,-8.86259 2.47393,-8.20349 10.24088,1.3399 20.12246,5.02787 11.59223,-0.44933 -38.63568,-24.80773 -53.91631,-74.55496 -50.40226,-109.62622 2.21093,-22.06533 6.0957,4.52718 7.6968,0.46296 4.3591,-48.37458 26.21443,-91.25253 33.13946,-138.30779 9.77345,-45.55212 3.69205,-81.45509 3.25506,-83.98413 C 632.97293,136.24175 609.34104,99.274276 594.75188,90.499446 575.22494,78.754686 567.33285,73.515488 553.13025,62.364112 510.36095,12.114803 472.60212,17.300561 414.24808,20.649692 Z m 109.99145,84.402458 c 1.01234,0 8.29662,6.21401 14.09658,13.11278 5.80001,6.89878 5.00937,15.46043 10.14096,22.2359 15.1033,19.94155 13.22081,52.42795 24.949,79.72516 2.93578,6.83302 4.34047,5.33691 8.31633,7.1453 3.97586,1.8084 25.69112,6.69937 25.69112,6.69937 -4.77859,-0.0475 -13.30706,-3.1301 -18.6139,-3.26118 -4.29405,-0.10591 -8.56312,-0.23355 -13.53828,-0.43573 -1.83378,-0.0745 -4.41093,-0.0881 -7.33596,-0.068 l -2.29438,-2.44418 c -10.77565,-19.67421 -52.61147,-13.59903 -72.39924,-10.99248 -13.92454,1.83422 -21.85846,9.92094 -23.66243,14.23663 -1.57032,3.75537 -0.52827,3.67639 1.40648,3.94521 8.40827,-1.09636 9.41333,-2.38187 21.62084,-6.95658 16.16648,-4.83466 32.44242,-4.94153 49.22456,-5.64021 15.11797,-2.04517 18.21044,5.70673 25.50045,7.8551 -9.09671,0.0751 -21.19853,0.46114 -24.91834,0.44255 -5.0173,-0.0252 -24.89559,0.82319 -32.0637,1.6374 -20.92235,0.96734 -40.04211,7.70403 -54.5093,23.23908 -4.24685,4.86232 -16.19949,2.25957 -25.37909,1.72834 -8.4877,-1.26608 -13.86575,-10.76849 -18.5894,-14.78908 -4.47808,-3.8116 -15.74405,-5.99698 -32.60575,-8.37411 -3.95312,-0.55732 -14.5346,-1.51052 -18.72621,-1.87909 -1.15134,-0.10123 11.33099,-6.75581 19.20953,-12.01589 2.69376,-1.79848 -8.61503,-5.91936 -15.62483,-5.87855 -6.20499,0.0361 -21.22959,13.8484 -23.58171,15.6567 -1.79147,0.78436 -11.21036,-1.99277 -19.04862,-1.47311 -6.63479,0.43988 16.28835,-10.50601 19.89029,-10.62175 25.89105,-0.83202 66.39228,15.59648 81.52955,19.4218 0.69761,-3.86365 0.84838,-11.4401 -1.85527,-12.50684 -25.26806,-9.96983 -55.18874,-17.78061 -74.00623,-14.89577 38.83355,-20.4619 54.49073,-31.14808 89.5715,-65.35731 -31.52852,48.50684 -48.06077,50.18754 -70.34914,67.57626 -5.51239,4.3006 18.82561,3.58616 19.17235,3.93293 0.34678,0.34674 30.44856,-17.27273 37.59919,-20.26333 9.18263,-3.84044 46.14329,-33.04955 55.53517,-47.05548 11.11382,-16.57381 37.34754,-43.68162 45.64669,-43.68162 z M 294.40819,233.11197 c 3.27584,0 6.028,-0.57257 6.028,1.68404 0,2.25661 -2.33582,6.13814 -5.61165,6.13814 -3.27589,0 -0.75946,0.39715 -2.42203,-1.75804 -1.92822,-2.49956 -2.24029,-6.06414 2.00568,-6.06414 z m 266.44231,5.09289 c 17.01149,-0.0933 25.35194,3.44508 24.57298,19.95907 -0.69332,14.69841 -4.85745,34.07228 -12.53856,49.2071 -5.98725,11.79726 -11.60842,18.4584 -15.99396,20.22486 -14.68053,5.9132 -42.38754,7.00356 -54.15105,4.02743 -14.48285,-3.66409 -26.58657,-6.67231 -33.79397,-21.84909 -3.54681,-7.46856 -9.07531,-23.23334 -9.47375,-31.56667 -0.57366,-11.99834 5.69818,-22.73601 12.24474,-27.47827 5.80837,-4.20758 17.60955,-7.33188 32.22096,-9.83176 18.26378,-3.12473 42.86071,-2.61575 56.91261,-2.69267 z m -229.13329,0.0959 c -13.96681,19.3978 -18.02574,33.25444 -21.29907,49.17404 -2.11513,-4.61167 -6.35974,-14.27865 -8.01829,-25.16318 -1.16125,-7.62091 -0.57898,-12.99812 0.83402,-15.84628 1.24481,-2.50916 3.09435,-5.33822 8.7793,-6.85256 3.31143,-0.88205 7.9259,-1.08246 14.47785,-1.13359 2.39582,-0.0186 4.02497,0.001 5.22619,-0.17848 1.20121,-0.17975 0,5e-5 0,5e-5 z m 22.12352,1.76136 c 9.12008,0.15262 19.67516,0.65056 28.60843,2.37608 18.45298,3.63295 25.78549,6.54204 33.34098,13.76838 3.82875,3.66196 4.92918,5.63973 5.5828,10.03201 1.88508,12.66759 -4.69641,37.90042 -14.06306,49.51862 -6.32078,7.84016 -11.74414,13.51519 -20.74158,15.22152 -12.78646,2.4248 -40.59097,0.46988 -49.48552,-3.11716 -4.50654,-1.81745 -8.09521,-5.92455 -14.63218,-15.6493 -5.94667,-8.8466 -8.07319,-12.98045 -0.5707,-28.49224 2.94348,-6.08581 10.9609,-21.41849 13.67154,-25.0317 8.24308,-10.98775 18.28929,-18.62621 18.28929,-18.62621 z m 244.6549,-2.69827 c -2.22819,0 4.41377,1.20086 4.41377,2.87533 0,2.70561 -6.40312,8.75079 -8.08852,6.33027 -0.6597,-0.94716 -0.85271,-7.29416 0.0861,-8.12736 0.90326,-0.80171 4.92568,-1.07824 3.58873,-1.07824 z" />
  </g>
</svg>
